<svg width="270" height="48" viewBox="0 0 270 48" fill="none" xmlns="http://www.w3.org/2000/svg">
<path d="M5.17285 38.9207C9.52179 44.4208 16.2015 47.9678 23.7198 47.9678C24.4872 47.9678 25.2405 47.9247 25.9937 47.8529L13.0464 25.149L5.17285 38.9207Z" fill="white"/>
<path d="M1.64862 15.2111C0.582701 17.9252 0 20.8978 0 23.9997C0 29.1838 1.6344 33.9802 4.40579 37.9006L17.3673 15.2111H1.64862Z" fill="white"/>
<path d="M23.7193 0.0323486C22.9518 0.0323486 22.1986 0.0467078 21.4453 0.11851L34.4069 22.8224L42.2662 9.05072C37.9173 3.56502 31.2375 0.0323486 23.7193 0.0323486Z" fill="white"/>
<path d="M20.197 0.290527C12.1386 1.49681 5.41627 6.81018 2.14746 14.0479H28.0705L20.197 0.290527Z" fill="white"/>
<path d="M45.7919 32.745C46.8436 30.0309 47.4406 27.087 47.4406 23.9995C47.4406 18.8154 45.8062 14.0046 43.0348 10.0842L30.0732 32.745H45.7919Z" fill="white"/>
<path d="M27.2305 47.6801C35.303 46.4738 42.0396 41.1605 45.3084 33.9084H19.3711L27.2305 47.6801Z" fill="white"/>
<path d="M79.3593 37.9808C71.338 37.9808 67.2471 34.4146 67.2471 28.7006V28.4575H71.5786V29.1059C71.5786 32.3479 73.4637 33.9689 79.3593 33.9689C84.493 33.9689 86.2978 32.8342 86.2978 30.2811C86.2978 27.9306 84.9341 27.0391 81.5251 26.3907L74.9476 25.2965C70.4156 24.486 67.207 22.3787 67.207 17.921C67.207 13.9901 70.4156 10.0186 78.7577 10.0186C86.6186 10.0186 90.1881 13.9901 90.1881 19.2988V19.542H85.8967V19.0152C85.8967 15.6921 83.9315 14.0306 78.3567 14.0306C73.4637 14.0306 71.5385 15.2463 71.5385 17.6778C71.5385 20.0283 72.9022 20.7982 76.0706 21.4872L82.608 22.6219C87.9822 23.5945 90.6293 26.0665 90.6293 30.0379C90.6293 34.1715 87.3004 37.9808 79.3593 37.9808Z" fill="white"/>
<path d="M106.137 37.9808C98.1161 37.9808 93.5439 33.6852 93.5439 26.3096V10.4239H97.8353V26.026C97.8353 31.4968 100.242 33.7662 106.137 33.7662C112.033 33.7662 114.439 31.4968 114.439 26.026V10.4239H118.771V26.3096C118.771 33.6852 114.199 37.9808 106.137 37.9808Z" fill="white"/>
<path d="M126.941 37.5756H122.609V10.4239H136.566C142.663 10.4239 146.433 13.3417 146.433 18.4073C146.433 22.9055 143.505 25.6612 138.451 25.9449V26.2286C140.537 26.7959 141.499 28.0117 142.462 29.7137L146.954 37.5756H141.981L137.689 30.0785C136.486 27.9306 135.243 27.0391 131.874 27.0391H126.941V37.5756ZM126.941 14.3548V23.6755H136.526C140.136 23.6755 141.941 22.4192 141.941 19.0152C141.941 15.6921 140.136 14.3548 136.526 14.3548H126.941Z" fill="white"/>
<path d="M171.053 37.5756H149.556V10.4239H171.053V14.3548H153.887V21.9735H170.451V25.8639H153.887V33.6447H171.053V37.5756Z" fill="white"/>
<path d="M187.782 37.9808C178.919 37.9808 173.424 32.4694 173.424 23.9997C173.424 15.53 178.919 10.0186 187.782 10.0186C196.124 10.0186 201.499 14.2332 201.499 21.1224V21.7303H194.801V21.1224C194.801 17.5563 192.795 15.8542 187.902 15.8542C182.007 15.8542 179.801 17.9615 179.801 23.9997C179.801 30.0379 182.007 32.1452 187.902 32.1452C192.795 32.1452 194.801 30.4432 194.801 26.877V26.2691H201.499V26.877C201.499 33.7662 196.164 37.9808 187.782 37.9808Z" fill="white"/>
<path d="M209.039 37.5756H202.301L214.052 10.4239H222.635L234.466 37.5756H227.568L225.041 31.5779H211.605L209.039 37.5756ZM216.458 20.1904L213.932 26.107H222.715L220.188 20.1904L218.544 15.9758H218.103L216.458 20.1904Z" fill="white"/>
<path d="M241.886 37.5756H235.87V10.4239H244.011L250.308 23.7971L252.835 30.1595H253.276L255.722 23.7971L261.819 10.4239H270V37.5756H263.984V23.7971L264.185 19.542H263.744L262.18 23.7971L256.565 35.9546H249.265L243.65 23.7971L242.086 19.542H241.645L241.886 23.7971V37.5756Z" fill="white"/>
</svg>
